<?xml version="1.0" standalone="no"?>
<!DOCTYPE svg PUBLIC "-//W3C//DTD SVG 20010904//EN"
 "http://www.w3.org/TR/2001/REC-SVG-20010904/DTD/svg10.dtd">
<svg version="1.0" xmlns="http://www.w3.org/2000/svg"
 width="1136.000000pt" height="1136.000000pt" viewBox="0 0 1136.000000 1136.000000"
 preserveAspectRatio="xMidYMid meet">
<metadata>
Created by potrace 1.14, written by Peter Selinger 2001-2017
</metadata>
<g transform="translate(0.000000,1136.000000) scale(0.100000,-0.100000)"
fill="#000000" stroke="none">
<path d="M2060 11339 c-303 -35 -656 -157 -927 -320 -309 -187 -605 -483 -792
-792 -168 -279 -285 -622 -321 -942 -8 -72 -10 -1092 -8 -3665 l3 -3565 23
-125 c95 -501 322 -926 683 -1275 354 -342 781 -553 1279 -632 110 -17 282
-18 3685 -18 3401 0 3575 1 3685 18 504 80 950 306 1306 661 352 353 573 785
661 1296 17 100 18 283 21 3615 2 2540 0 3545 -8 3635 -48 536 -271 1022 -645
1409 -349 361 -774 588 -1275 683 l-125 23 -3585 1 c-1972 1 -3619 -2 -3660
-7z m5983 -2485 c60 -20 131 -84 165 -148 l27 -51 0 -2455 0 -2455 -23 -46
c-31 -64 -85 -117 -151 -148 l-56 -26 -2040 -5 -2040 -5 -66 -26 c-94 -36
-155 -74 -223 -138 -126 -120 -189 -263 -190 -436 0 -115 17 -184 70 -286 71
-135 197 -242 349 -296 l80 -28 2118 -5 2119 -5 29 -33 c33 -37 39 -94 15
-140 -32 -61 127 -57 -2180 -57 l-2111 0 -85 22 c-306 81 -542 317 -623 623
l-22 85 0 2700 c0 2557 1 2704 18 2776 55 235 217 431 442 535 144 67 -14 62
2261 63 1859 1 2075 -1 2117 -15z m-277 -5848 c30 -30 34 -40 34 -84 0 -41 -5
-55 -28 -80 -16 -17 -43 -33 -63 -37 -19 -3 -840 -4 -1826 -3 l-1792 3 -28 21
c-60 45 -61 138 -2 188 l31 26 1820 0 1820 0 34 -34z"/>
<path d="M6263 7345 c-155 -42 -259 -148 -299 -306 -11 -41 -14 -83 -11 -119
l6 -55 -436 -235 c-240 -129 -465 -250 -499 -268 l-63 -34 -43 30 c-70 48
-136 65 -231 60 -104 -6 -176 -38 -241 -108 -123 -132 -139 -320 -41 -465 123
-180 378 -215 538 -75 l45 40 545 -223 545 -222 0 -82 c0 -145 52 -269 154
-371 102 -103 221 -152 368 -152 231 0 425 139 500 360 31 90 32 219 2 316
-55 178 -214 323 -390 357 -54 10 -62 15 -66 37 -3 14 -28 187 -56 384 -45
315 -50 360 -36 368 43 24 105 79 138 123 86 114 103 284 42 415 -85 181 -284
275 -471 225z m-149 -722 c34 -28 122 -73 146 -73 8 0 21 -4 27 -8 8 -5 31
-138 63 -358 27 -192 52 -363 55 -380 5 -30 3 -33 -52 -60 -32 -16 -86 -57
-121 -92 l-64 -64 -544 222 -544 223 0 42 0 42 493 266 c270 147 496 267 501
267 4 0 22 -12 40 -27z"/>
</g>
</svg>
